<svg width="63" height="41" viewBox="0 0 63 41" fill="none" xmlns="http://www.w3.org/2000/svg">
<path d="M28.0199 2.76848C23.4785 0.330426 18.1721 -0.147629 13.296 1.47774C8.41993 3.1031 4.40432 6.64067 2.20529 11.2777C-2.71861 20.9821 0.866757 32.8856 10.3321 38.2397C14.778 40.6778 20.0365 41.1558 24.8648 39.5782H24.9126C26.1077 39.2436 27.2073 38.7178 28.2112 38.0007C26.4424 36.6144 24.9604 34.8934 23.9087 32.8856V32.8378C20.4668 34.3197 16.5468 34.1285 13.2482 32.3119C6.93798 28.7265 4.54773 20.7909 7.84627 14.2895C9.28042 11.1821 12.0053 8.83969 15.256 7.74018C18.5068 6.64067 22.0443 6.97531 25.1038 8.60068C28.7848 10.6563 31.2707 14.2895 31.7965 18.4963L38.2502 21.9861C38.8717 14.1939 34.9038 6.64067 28.0199 2.76848Z" fill="#2CC4EC"/>
<path d="M34.9024 38.335C39.4438 40.7253 44.798 41.1555 49.6741 39.5301C54.5502 37.9048 58.518 34.3194 60.717 29.6823C65.5931 19.9301 61.96 8.07451 52.4946 2.72036C48.0487 0.282311 42.7902 -0.147924 37.9619 1.42964H37.9141C36.719 1.76427 35.6195 2.29012 34.6156 3.00719C36.4321 4.34573 37.8663 6.11452 38.918 8.12232V8.17012C42.3599 6.68816 46.2799 6.87938 49.5785 8.64816C55.9365 12.2335 58.3268 20.1213 55.076 26.6228C53.6419 29.7301 50.9648 32.1204 47.7141 33.2199C44.4634 34.3194 40.9258 34.0326 37.8663 32.4072C34.1853 30.3994 31.6517 26.7184 31.1258 22.5594L24.6721 19.0696C23.9551 26.9574 27.9707 34.4628 34.9024 38.335Z" fill="#8CC63F"/>
</svg>
