<svg width="31" height="31" viewBox="0 0 31 31" fill="none" xmlns="http://www.w3.org/2000/svg">
<path d="M18 7.8125C18 9.19321 16.8807 10.3125 15.5 10.3125C14.1193 10.3125 13 9.19321 13 7.8125C13 6.43179 14.1193 5.3125 15.5 5.3125C16.8807 5.3125 18 6.43179 18 7.8125Z" fill="white"/>
<path d="M18 15.3125C18 16.6932 16.8807 17.8125 15.5 17.8125C14.1193 17.8125 13 16.6932 13 15.3125C13 13.9318 14.1193 12.8125 15.5 12.8125C16.8807 12.8125 18 13.9318 18 15.3125Z" fill="white"/>
<path d="M18 22.8125C18 24.1932 16.8807 25.3125 15.5 25.3125C14.1193 25.3125 13 24.1932 13 22.8125C13 21.4318 14.1193 20.3125 15.5 20.3125C16.8807 20.3125 18 21.4318 18 22.8125Z" fill="white"/>
</svg>
