<svg width="50" height="51" viewBox="0 0 50 51" fill="none" xmlns="http://www.w3.org/2000/svg">
<path d="M25 0.5C38.8 0.5 50 11.7 50 25.5C50 39.3 38.8 50.5 25 50.5C11.2 50.5 0 39.3 0 25.5C0 11.7 11.2 0.5 25 0.5ZM25 7.1C14.8 7.1 6.6 15.3 6.6 25.5C6.6 35.7 14.8 43.9 25 43.9C35.2 43.9 43.4 35.7 43.4 25.5C43.4 15.3 35.2 7.1 25 7.1ZM31.2 26.5C34.0719 26.5 36.4 28.8281 36.4 31.7C36.4 34.5719 34.0719 36.9 31.2 36.9C28.3281 36.9 26 34.5719 26 31.7C26 28.8281 28.3281 26.5 31.2 26.5ZM18.8 26.5C21.6719 26.5 24 28.8281 24 31.7C24 34.5719 21.6719 36.9 18.8 36.9C15.9281 36.9 13.6 34.5719 13.6 31.7C13.6 28.8281 15.9281 26.5 18.8 26.5ZM31.2 14.1C34.0719 14.1 36.4 16.4281 36.4 19.3C36.4 22.1719 34.0719 24.5 31.2 24.5C28.3281 24.5 26 22.1719 26 19.3C26 16.4281 28.3281 14.1 31.2 14.1ZM18.8 14.1C21.6719 14.1 24 16.4281 24 19.3C24 22.1719 21.6719 24.5 18.8 24.5C15.9281 24.5 13.6 22.1719 13.6 19.3C13.6 16.4281 15.9281 14.1 18.8 14.1Z" fill="#F12E45"/>
</svg>
