<svg width="58" height="51" viewBox="0 0 58 51" fill="none" xmlns="http://www.w3.org/2000/svg">
<path d="M28.5124 30.7323C31.7316 30.7323 34.3412 28.1227 34.3412 24.9035C34.3412 21.6844 31.7316 19.0747 28.5124 19.0747C25.2932 19.0747 22.6836 21.6844 22.6836 24.9035C22.6836 28.1227 25.2932 30.7323 28.5124 30.7323Z" fill="#009AC7"/>
<path d="M53.1254 22.4803C51.6503 10.0861 41.0812 0.5 28.3008 0.5C17.9428 0.5 9.02424 6.82014 5.23242 15.8088L13.0274 18.864C15.5902 12.9648 21.454 8.85714 28.3008 8.85714C36.4472 8.85714 43.2239 14.7207 44.6628 22.4803H41.4672L49.2276 30.0998L57.0226 22.4461H53.1254V22.4803Z" fill="white"/>
<path d="M43.5394 32.2063C40.9758 38.0709 35.1128 42.1436 28.3008 42.1436C20.2953 42.1436 13.6238 36.4902 12.0436 28.9414H15.5548L7.79521 21.2871L0 28.9414H3.54655C5.23238 41.1253 15.6602 50.5002 28.3008 50.5002C38.6588 50.5002 47.542 44.2151 51.3344 35.2615L43.5394 32.2063Z" fill="white"/>
</svg>
