<svg width="51" height="51" viewBox="0 0 51 51" fill="none" xmlns="http://www.w3.org/2000/svg">
<path d="M25.0963 16.0746C19.8604 16.0746 15.6028 20.3267 15.6028 25.5446C15.6028 30.7625 19.8627 35.0146 25.0963 35.0146C30.3298 35.0146 34.5897 30.7625 34.5897 25.5446C34.5897 20.3267 30.3298 16.0746 25.0963 16.0746ZM10.316 25.5446C10.316 17.3989 16.9372 10.7902 25.0963 10.7902C33.2553 10.7902 39.8757 17.4067 39.8757 25.5517C39.8757 26.1152 39.8241 26.6278 39.774 27.1404C39.6722 28.575 40.6975 29.6504 42.1344 29.6504C44.5465 29.6504 44.7954 26.5253 44.7954 25.5008C44.7954 14.5884 35.9672 5.77815 25.0368 5.77815C14.1064 5.77815 5.28598 14.5884 5.28598 25.5008C5.28598 36.4132 14.1134 45.2234 25.0446 45.2234C30.8362 45.2234 36.0275 42.7135 39.6722 38.7682L43.7263 42.1492C39.1588 47.2724 32.4876 50.5 25.0446 50.5C11.1879 50.5016 0 39.2816 0 25.5008C0 11.6683 11.2388 0.5 25.0446 0.5C38.9013 0.5 50.0892 11.72 50.0892 25.5008C50.0892 31.0341 47.4282 35.5421 42.1344 35.5421C39.774 35.5421 38.3879 34.466 37.5669 33.2881C34.9498 37.4893 30.3306 40.2552 24.993 40.2552C16.9356 40.3061 10.3152 33.6966 10.3152 25.5524L10.316 25.5446ZM25.0963 21.19C27.5084 21.19 29.4587 23.1364 29.4587 25.493C29.4587 27.9012 27.5084 29.8476 25.0963 29.8476C22.6842 29.8476 20.7338 27.909 20.7338 25.5008C20.7855 23.145 22.6842 21.1978 25.0963 21.1978V21.19Z" fill="#C02126"/>
</svg>
