<svg width="31" height="24" viewBox="0 0 31 24" fill="none" xmlns="http://www.w3.org/2000/svg">
<g clip-path="url(#clip0_110_8687)">
<path fill-rule="evenodd" clip-rule="evenodd" d="M27.8169 19.3271L26.208 20.936C25.7856 21.3584 25.0898 21.3584 24.6675 20.936L23.3711 19.6396C22.7021 19.9961 21.9844 20.2695 21.2275 20.4453V22.125C21.2275 22.7231 20.7368 23.2139 20.1387 23.2139H17.8633C17.2651 23.2139 16.7744 22.7231 16.7744 22.125V20.2915C16.0322 20.0669 15.3315 19.7471 14.6895 19.3418L13.5005 20.5308C13.0781 20.9531 12.3823 20.9531 11.96 20.5308L11.2324 19.8057L11.252 19.7837L14.4429 16.1313C15.6099 17.4985 17.3481 18.3677 19.2866 18.3677C22.8022 18.3677 25.6538 15.5161 25.6538 12.0029C25.6538 8.4873 22.8022 5.63574 19.2866 5.63574C17.5264 5.63574 15.9321 6.35107 14.7798 7.50586L13.6055 7.46191L10.6343 4.81543C10.6709 4.76416 10.71 4.71777 10.7539 4.67139L12.3628 3.0625C12.7852 2.64014 13.481 2.64014 13.9033 3.0625L15.1997 4.35889C15.8687 4 16.5864 3.72656 17.3433 3.55322V1.87354C17.3481 1.27783 17.8389 0.787109 18.437 0.787109H20.71C21.3081 0.787109 21.7988 1.27783 21.7988 1.87598V3.70947C22.541 3.93408 23.2417 4.25635 23.8838 4.65918L25.0728 3.47021C25.4951 3.04785 26.1909 3.04785 26.6133 3.47021L28.2222 5.0791C28.6445 5.50146 28.6445 6.19727 28.2222 6.61963L26.9258 7.91602C27.2847 8.58496 27.5581 9.30273 27.7314 10.0596H29.4111C30.0068 10.0596 30.5 10.5503 30.5 11.1484V13.4238C30.5 14.022 30.0093 14.5127 29.4111 14.5127H27.5801C27.3555 15.2549 27.0356 15.9556 26.6304 16.5977L27.8193 17.7866C28.2417 18.209 28.2417 18.9023 27.8169 19.3271ZM19.3062 9.93262C20.4487 9.93262 21.374 10.8579 21.374 12.0005C21.374 13.1431 20.4487 14.0684 19.3062 14.0684C18.1636 14.0684 17.2383 13.1431 17.2383 12.0005C17.2383 10.8579 18.166 9.93262 19.3062 9.93262ZM15.1826 11.8735L9.56494 18.3066L9.37695 15.2891C5.53662 14.7397 2.59473 15.7944 0.5 18.8218C0.524414 12.8647 4.39648 9.74951 9.00098 9.271L8.80811 6.19238L15.1826 11.8735Z" fill="white"/>
</g>
<defs>
<clipPath id="clip0_110_8687">
<rect width="30" height="22.4268" fill="white" transform="translate(0.5 0.787109)"/>
</clipPath>
</defs>
</svg>
