<svg width="50" height="51" viewBox="0 0 50 51" fill="none" xmlns="http://www.w3.org/2000/svg">
<path d="M0 17.1016H16.6985V33.8H0V17.1016Z" fill="white"/>
<path d="M0 17.1016H16.6985V33.8H0V17.1016Z" fill="#99E1F4"/>
<path d="M16.6977 33.8015H33.2993V50.4031H16.6977V33.8015Z" fill="white"/>
<path d="M16.6977 33.8015H33.2993V50.4031H16.6977V33.8015Z" fill="#99E1F4"/>
<path d="M0 50.4038H16.6985V50.4999H0V50.4038ZM0 33.8022H16.6985V50.4038H0V33.8022Z" fill="#1A82E2"/>
<path d="M16.6977 0.5H33.2993V17.1016H16.6977V0.5ZM33.3008 17.1984H49.9993V33.8H33.3008V17.1984Z" fill="#00B3E3"/>
<path d="M16.6977 33.8016H33.2993V17.1016H16.6977V33.8016Z" fill="#009DD9"/>
<path d="M33.3023 0.5H50.0008V17.1016H33.3023V0.5Z" fill="#1A82E2"/>
<path d="M33.3023 17.1016H50.0008V17.1977H33.3023V17.1016Z" fill="#1A82E2"/>
</svg>
