<svg width="64" height="51" viewBox="0 0 64 51" fill="none" xmlns="http://www.w3.org/2000/svg">
<path d="M31.4675 0.500459C26.121 0.533461 21.1706 2.31561 17.1773 5.31885C13.184 8.3221 10.1477 12.5794 8.59661 17.4968C8.53061 17.6949 8.4316 17.8929 8.29959 18.0579C8.16758 18.2229 8.03557 18.3549 7.83755 18.4869C5.36235 20.1041 3.34918 22.3812 1.96307 25.0215C0.576956 27.6947 -0.116101 30.7309 0.0159095 33.9982C0.246928 38.6846 2.3261 42.8429 5.52736 45.7802C8.72862 48.7504 13.019 50.5325 17.6393 50.4995H31.5995H45.5596C50.18 50.4665 54.4704 48.6514 57.6386 45.6481C60.8069 42.6449 62.8861 38.4536 63.0841 33.7672C63.2161 30.5329 62.49 27.4637 61.1039 24.8234C59.7178 22.1832 57.6716 19.939 55.1964 18.3219C55.0314 18.2229 54.8664 18.0579 54.7344 17.8929C54.6024 17.7279 54.5034 17.5629 54.4374 17.3318C52.8532 12.4144 49.784 8.19008 45.7577 5.21984C41.7643 2.2166 36.8139 0.467456 31.4675 0.500459ZM31.4675 6.73797C35.4278 6.73797 39.1571 8.05807 42.2264 10.3683C45.2626 12.6785 47.6058 15.9457 48.7609 19.774L48.9919 20.5991L49.2229 21.4242C49.2889 21.6552 49.388 21.8532 49.52 22.0182C49.652 22.1832 49.817 22.3482 50.015 22.4473L50.7411 22.8763L51.4671 23.3053C53.2493 24.3614 54.6354 25.8465 55.5595 27.5957C56.4835 29.3448 56.9786 31.325 56.8796 33.4041C56.7806 36.4404 55.4274 39.1136 53.3813 41.0608C51.3351 43.0079 48.5629 44.163 45.5596 44.196L31.5335 44.262L17.5733 44.328C14.6031 44.328 11.7979 43.1729 9.75171 41.2588C7.67254 39.3446 6.31943 36.6714 6.18741 33.6352C6.08841 31.556 6.55044 29.5428 7.47452 27.7937C8.3986 26.0445 9.78471 24.5594 11.5339 23.4703L12.2599 23.0083L12.986 22.5463C13.184 22.4142 13.349 22.2822 13.481 22.1172C13.613 21.9522 13.712 21.7542 13.778 21.5232L14.0091 20.6981L14.2401 19.873C15.3622 16.0117 17.6724 12.7445 20.7086 10.4013C23.7779 8.09108 27.5402 6.73797 31.4675 6.73797Z" fill="#03A94A"/>
<path d="M26.714 21.8862C26.714 22.2492 26.582 22.5792 26.318 22.8433C26.087 23.0743 25.7569 23.2393 25.3939 23.2393H24.0738H22.7537C22.3907 23.2393 22.0606 23.1073 21.8296 22.8433C21.5986 22.6122 21.4336 22.2822 21.4336 21.9192V20.5661V19.213C21.4336 18.8499 21.5656 18.5199 21.8296 18.2559C22.0606 18.0249 22.3907 17.8599 22.7537 17.8599H24.0738H25.3939C25.7569 17.8599 26.087 18.0249 26.318 18.2559C26.549 18.4869 26.714 18.8169 26.714 19.18V20.5331V21.8862ZM34.1726 21.8862C34.1726 22.2492 34.0406 22.5792 33.7766 22.8433C33.5456 23.0743 33.2156 23.2393 32.8525 23.2393H31.5324H30.2123C29.8493 23.2393 29.5193 23.1073 29.2882 22.8433C29.0572 22.6122 28.8922 22.2822 28.8922 21.9192V20.5661V19.213C28.8922 18.8499 29.0242 18.5199 29.2882 18.2559C29.5193 18.0249 29.8493 17.8599 30.2123 17.8599H31.5324H32.8525C33.2156 17.8599 33.5456 18.0249 33.7766 18.2559C34.0076 18.4869 34.1726 18.8169 34.1726 19.18V20.5331V21.8862ZM41.5982 21.8862C41.5982 22.2492 41.4662 22.5792 41.2022 22.8433C40.9382 23.1073 40.6412 23.2393 40.2781 23.2393H38.958H37.6379C37.2749 23.2393 36.9449 23.1073 36.7138 22.8433C36.4828 22.6122 36.3178 22.2822 36.3178 21.9192V20.5661V19.213C36.3178 18.8499 36.4498 18.5199 36.7138 18.2559C36.9449 18.0249 37.2749 17.8599 37.6379 17.8599H38.958H40.2781C40.6412 17.8599 40.9712 17.9919 41.2022 18.2229C41.4332 18.4539 41.5982 18.7839 41.5982 19.147V20.5001V21.8862ZM26.714 29.4768C26.714 29.8398 26.582 30.1699 26.318 30.4339C26.087 30.6649 25.7569 30.8299 25.3939 30.8299H24.0738H22.7537C22.3907 30.8299 22.0606 30.6979 21.8296 30.4339C21.5986 30.2029 21.4336 29.8728 21.4336 29.5098V28.1567V26.8036C21.4336 26.4405 21.5656 26.1105 21.8296 25.8465C22.0606 25.6155 22.3907 25.4505 22.7537 25.4505H24.0738H25.3939C25.7569 25.4505 26.087 25.6155 26.318 25.8465C26.549 26.0775 26.714 26.4076 26.714 26.7706V28.1237V29.4768ZM34.1726 29.4768C34.1726 29.8398 34.0406 30.1699 33.7766 30.4339C33.5456 30.6649 33.2156 30.8299 32.8525 30.8299H31.5324H30.2123C29.8493 30.8299 29.5193 30.6979 29.2882 30.4339C29.0572 30.2029 28.8922 29.8728 28.8922 29.5098V28.1567V26.8036C28.8922 26.4405 29.0242 26.1105 29.2882 25.8465C29.5193 25.6155 29.8493 25.4505 30.2123 25.4505H31.5324H32.8525C33.2156 25.4505 33.5456 25.6155 33.7766 25.8465C34.0076 26.0775 34.1726 26.4076 34.1726 26.7706V28.1237V29.4768ZM41.5982 29.4768C41.5982 29.8398 41.4662 30.1699 41.2022 30.4339C40.9382 30.6979 40.6412 30.8299 40.2781 30.8299H38.958H37.6379C37.2749 30.8299 36.9449 30.6979 36.7138 30.4339C36.4828 30.2029 36.3178 29.8728 36.3178 29.5098V28.1567V26.8036C36.3178 26.4405 36.4498 26.1105 36.7138 25.8465C36.9449 25.6155 37.2749 25.4505 37.6379 25.4505H38.958H40.2781C40.6412 25.4505 40.9712 25.6155 41.2022 25.8465C41.4332 26.0775 41.5982 26.4076 41.5982 26.7706V28.1237V29.4768ZM26.714 37.0344C26.714 37.3974 26.582 37.7275 26.318 37.9915C26.087 38.2225 25.7569 38.3875 25.3939 38.3875H24.0738H22.7537C22.3907 38.3875 22.0606 38.2555 21.8296 37.9915C21.5986 37.7605 21.4336 37.4304 21.4336 37.0674V35.7143V34.3612C21.4336 33.9982 21.5656 33.6681 21.8296 33.4041C22.0606 33.1731 22.3907 33.0081 22.7537 33.0081H24.0738H25.3939C25.7569 33.0081 26.087 33.1401 26.318 33.4041C26.549 33.6351 26.714 33.9652 26.714 34.3282V35.6813V37.0344ZM34.1726 37.0344C34.1726 37.3974 34.0406 37.7275 33.7766 37.9915C33.5456 38.2225 33.2156 38.3875 32.8525 38.3875H31.5324H30.2123C29.8493 38.3875 29.5193 38.2555 29.2882 37.9915C29.0572 37.7605 28.8922 37.4304 28.8922 37.0674V35.7143V34.3612C28.8922 33.9982 29.0242 33.6681 29.2882 33.4041C29.5193 33.1731 29.8493 33.0081 30.2123 33.0081H31.5324H32.8525C33.2156 33.0081 33.5456 33.1401 33.7766 33.4041C34.0076 33.6351 34.1726 33.9652 34.1726 34.3282V35.6813V37.0344ZM41.6312 37.0344C41.6312 37.3974 41.4992 37.7275 41.2352 37.9915C41.0042 38.2225 40.6742 38.3875 40.3111 38.3875H38.991H37.6709C37.3079 38.3875 36.9779 38.2555 36.7468 37.9915C36.5158 37.7605 36.3508 37.4304 36.3508 37.0674V35.7143V34.3612C36.3508 33.9982 36.4828 33.6681 36.7468 33.4041C36.9779 33.1731 37.3079 33.0081 37.6709 33.0081H38.991H40.3111C40.6742 33.0081 41.0042 33.1401 41.2352 33.4041C41.4662 33.6351 41.6312 33.9652 41.6312 34.3282V35.6813V37.0344Z" fill="#03A94A"/>
</svg>
