<svg width="68" height="40" viewBox="0 0 68 40" fill="none" xmlns="http://www.w3.org/2000/svg">
<path fill-rule="evenodd" clip-rule="evenodd" d="M19.3503 14.5275C19.3503 15.3507 19.4392 16.0181 19.5949 16.5075C19.7729 16.997 19.9955 17.531 20.3069 18.1093C20.4181 18.2873 20.4626 18.4653 20.4626 18.621C20.4626 18.8435 20.3292 19.0659 20.04 19.2884L18.6384 20.2227C18.4381 20.3562 18.238 20.423 18.06 20.423C17.8375 20.423 17.6151 20.3118 17.3926 20.1116C17.0812 19.7779 16.8143 19.4219 16.5917 19.0659C16.3692 18.6876 16.1468 18.265 15.902 17.7533C14.1666 19.8001 11.9865 20.8234 9.36137 20.8234C7.49273 20.8234 6.00215 20.2894 4.91211 19.2216C3.82207 18.1536 3.26581 16.7299 3.26581 14.9501C3.26581 13.059 3.93324 11.5241 5.29037 10.3672C6.6475 9.21036 8.44952 8.63203 10.7408 8.63203C11.4971 8.63203 12.2759 8.69865 13.0991 8.81003C13.9222 8.9212 14.7676 9.09919 15.6574 9.29946V7.67544C15.6574 5.98459 15.3014 4.80565 14.6117 4.11595C13.8997 3.42624 12.6985 3.09253 10.9854 3.09253C10.2068 3.09253 9.40592 3.18143 8.58277 3.38169C7.75962 3.58196 6.95874 3.82658 6.18014 4.13802C5.82415 4.29374 5.55726 4.38264 5.40154 4.42719C5.24582 4.47174 5.13465 4.49381 5.04555 4.49381C4.73411 4.49381 4.57839 4.27127 4.57839 3.80411V2.71407C4.57839 2.35808 4.62294 2.09118 4.73411 1.93546C4.84528 1.77974 5.04555 1.62402 5.35699 1.4683C6.13559 1.06777 7.07011 0.734052 8.16016 0.46716C9.2504 0.177995 10.4071 0.0445488 11.6307 0.0445488C14.2782 0.0445488 16.2137 0.645155 17.4594 1.84657C18.6831 3.04798 19.306 4.87207 19.306 7.31925V14.5273H19.3505L19.3503 14.5275ZM10.318 17.909C11.0522 17.909 11.8085 17.7756 12.6094 17.5087C13.4103 17.2418 14.1223 16.7524 14.7229 16.0849C15.0789 15.6623 15.3458 15.195 15.4794 14.6612C15.6128 14.1272 15.7017 13.482 15.7017 12.7257V11.7914C15.0566 11.6357 14.3669 11.5022 13.6551 11.4131C12.9431 11.3242 12.2536 11.2797 11.5639 11.2797C10.0733 11.2797 8.9833 11.5688 8.24905 12.1696C7.5148 12.7703 7.15901 13.6157 7.15901 14.728C7.15901 15.7737 7.4259 16.5523 7.98216 17.0861C8.51614 17.6423 9.29474 17.9092 10.3182 17.9092L10.318 17.909ZM28.1822 20.3116C27.7817 20.3116 27.5148 20.245 27.3368 20.0891C27.1588 19.9557 27.0031 19.6442 26.8696 19.2214L21.6416 2.02456C21.5081 1.57968 21.4413 1.29051 21.4413 1.13479C21.4413 0.778801 21.6193 0.578532 21.9753 0.578532H24.1556C24.5782 0.578532 24.8676 0.645356 25.0233 0.801076C25.2013 0.934521 25.3347 1.24596 25.4682 1.66877L29.2056 16.3962L32.6762 1.66877C32.7874 1.22389 32.9209 0.934521 33.0989 0.801076C33.2768 0.66763 33.5883 0.578532 33.9888 0.578532H35.7686C36.1912 0.578532 36.4805 0.645356 36.6585 0.801076C36.8365 0.934521 36.9923 1.24596 37.0812 1.66877L40.5961 16.5742L44.4449 1.66877C44.5784 1.22389 44.7341 0.934521 44.8898 0.801076C45.0678 0.66763 45.357 0.578532 45.7575 0.578532H47.8264C48.1824 0.578532 48.3827 0.756527 48.3827 1.13479C48.3827 1.24596 48.3604 1.35733 48.3382 1.49078C48.3159 1.62422 48.2713 1.80222 48.1824 2.04704L42.8209 19.2439C42.6875 19.6888 42.5318 19.9779 42.3538 20.1116C42.1758 20.245 41.8866 20.3341 41.5083 20.3341H39.5951C39.1723 20.3341 38.8832 20.2673 38.7052 20.1116C38.5272 19.9559 38.3715 19.6667 38.2826 19.2216L34.8342 4.87227L31.4082 19.1993C31.297 19.6442 31.1634 19.9334 30.9854 20.0891C30.8074 20.2448 30.496 20.3116 30.0956 20.3116H28.1824H28.1822ZM56.7695 20.9122C55.6126 20.9122 54.4558 20.7788 53.3435 20.5119C52.2312 20.245 51.3635 19.9557 50.7851 19.6219C50.4291 19.4217 50.1845 19.1993 50.0954 18.9991C50.0065 18.7988 49.962 18.5764 49.962 18.3762V17.2416C49.962 16.7744 50.14 16.5519 50.4737 16.5519C50.6071 16.5519 50.7406 16.5742 50.874 16.6187C51.0075 16.6633 51.2077 16.7522 51.4303 16.8412C52.1866 17.175 53.0098 17.4419 53.8775 17.6199C54.7674 17.7978 55.6349 17.8867 56.5249 17.8867C57.9264 17.8867 59.0166 17.6419 59.7729 17.1525C60.5293 16.6631 60.9298 15.9511 60.9298 15.039C60.9298 14.4162 60.7295 13.9044 60.3292 13.4818C59.9287 13.059 59.1723 12.681 58.0823 12.325L54.8565 11.3238C53.2325 10.8121 52.0311 10.0558 51.297 9.05464C50.563 8.07577 50.1847 6.98573 50.1847 5.82887C50.1847 4.89455 50.385 4.0714 50.7853 3.35942C51.1857 2.64744 51.7196 2.02456 52.3871 1.53513C53.0545 1.02342 53.8108 0.645356 54.7008 0.378263C55.5908 0.111171 56.5251 0 57.504 0C57.9934 0 58.5051 0.0222744 58.9945 0.0888969C59.5063 0.15572 59.9734 0.244617 60.4406 0.333514C60.8855 0.444685 61.3083 0.556057 61.7086 0.689503C62.1089 0.822949 62.4206 0.956394 62.6429 1.09004C62.9544 1.26804 63.1769 1.44603 63.3104 1.6461C63.4438 1.82409 63.5106 2.06891 63.5106 2.38035V3.42604C63.5106 3.8932 63.3326 4.13802 62.9989 4.13802C62.8209 4.13802 62.5318 4.04892 62.1535 3.87093C60.8855 3.2926 59.4615 3.00323 57.882 3.00323C56.614 3.00323 55.6128 3.2035 54.9231 3.62611C54.2334 4.04872 53.8775 4.69388 53.8775 5.60612C53.8775 6.229 54.1 6.76299 54.5449 7.1856C54.9898 7.60821 55.8129 8.03102 56.9921 8.40909L60.1512 9.41023C61.753 9.92194 62.9098 10.6339 63.5995 11.546C64.2892 12.458 64.6229 13.5037 64.6229 14.6606C64.6229 15.6172 64.4227 16.4849 64.0446 17.2412C63.6441 17.9977 63.1103 18.6649 62.4206 19.1989C61.7309 19.755 60.9077 20.1555 59.9511 20.4447C58.95 20.7561 57.9045 20.9118 56.7697 20.9118L56.7695 20.9122Z" fill="white"/>
<path fill-rule="evenodd" clip-rule="evenodd" d="M60.9744 31.7248C53.6551 37.1309 43.021 40.0007 33.8777 40.0007C21.0633 40.0007 9.51732 35.2621 0.796389 27.3868C0.106686 26.7639 0.729767 25.9185 1.55292 26.4079C10.9856 31.8806 22.6209 35.1954 34.6563 35.1954C42.7764 35.1954 51.6974 33.5046 59.9066 30.034C61.1301 29.4777 62.1758 30.8349 60.9744 31.7248Z" fill="#FF9900"/>
<path fill-rule="evenodd" clip-rule="evenodd" d="M64.0222 28.254C63.0878 27.0526 57.8375 27.6755 55.4572 27.9648C54.7452 28.0537 54.634 27.4308 55.2792 26.9637C59.4615 24.0271 66.3359 24.8725 67.1368 25.8514C67.9376 26.8525 66.9142 33.7269 62.9989 37.0193C62.3983 37.531 61.8198 37.2641 62.0869 36.5967C62.9769 34.3941 64.9567 29.4331 64.0224 28.254H64.0222Z" fill="#FF9900"/>
</svg>
